<svg width="22" height="18" fill="none" xmlns="http://www.w3.org/2000/svg"><g clip-path="url(#clip0)"><path d="M16.742 12.064l3.998 3.377a.66.66 0 00.736-.07.885.885 0 00.258-.335 1.07 1.07 0 00.094-.443V3.412a1.07 1.07 0 00-.094-.443.885.885 0 00-.258-.335.66.66 0 00-.736-.07L16.742 5.94a.9.9 0 00-.241.331 1.08 1.08 0 00-.087.428v4.606c0 .148.03.295.087.427a.9.9 0 00.241.331z" stroke="#000" stroke-linecap="round" stroke-linejoin="round"/><path d="M11.58 16.425H2.686c-.667-.002-1.305-.32-1.776-.886-.47-.565-.736-1.331-.738-2.13V4.59c.002-.799.267-1.565.738-2.13s1.11-.884 1.776-.886h8.917c.66.003 1.292.318 1.76.878.466.56.729 1.319.73 2.11v8.846c-.001.799-.267 1.565-.738 2.13-.47.565-1.109.884-1.775.886z" stroke="#000" stroke-miterlimit="10"/><path d="M8.8 12.495v.5h.5v-.5h-.5zm-4.889 0h-.5v.5h.5v-.5zm6.845.005v.5h.5v-.5h-.5zM7.322 6.999c0 .562-.443.999-.966.999v1c1.096 0 1.966-.905 1.966-1.999h-1zm-.966.999c-.524 0-.967-.437-.967-.999h-1c0 1.094.87 1.999 1.967 1.999v-1zm-.967-.999c0-.562.443-.999.967-.999V5c-1.097 0-1.967.905-1.967 1.999h1zM6.356 6c.523 0 .966.437.966.999h1C8.322 5.905 7.452 5 6.356 5v1zM8.8 11.995H3.911v1H8.8v-1zm-4.389.5v-.997h-1v.997h1zm.967-1.998h1.955v-1H5.378v1zm2.922 1v.998h1v-.997h-1zm-.967-1c.524 0 .967.437.967 1h1c0-1.094-.87-2-1.967-2v1zm-2.922 1c0-.563.443-1 .967-1v-1c-1.097 0-1.967.906-1.967 2h1zm5.845.253v.75h1v-.75h-1zm.5.25H9.533v1h1.223v-1zm-1.223-1c.389 0 .723.325.723.75h1c0-.956-.761-1.75-1.723-1.75v1zM9.29 9a.49.49 0 01-.478-.5h-1c0 .818.651 1.5 1.478 1.5V9zm.478-.5a.49.49 0 01-.478.5v1c.827 0 1.478-.682 1.478-1.5h-1zM9.289 8a.49.49 0 01.478.5h1c0-.818-.651-1.5-1.478-1.5v1zm0-1c-.827 0-1.478.682-1.478 1.5h1c0-.287.225-.5.478-.5V7z" fill="#000"/></g><defs><clipPath id="clip0"><path fill="#fff" d="M0 0h22v18H0z"/></clipPath></defs></svg>